<?xml version="1.0" encoding="UTF-8"?>
<svg xmlns="http://www.w3.org/2000/svg" xmlns:xlink="http://www.w3.org/1999/xlink" width="2000" height="680" viewBox="0 0 2000 680">
<path fill-rule="nonzero" fill="rgb(92.919922%, 10.430908%, 16.159058%)" fill-opacity="1" d="M 346.582031 200 L 346.582031 343.582031 L 382 343.582031 L 382 293.671875 L 502.746094 414.417969 L 382 414.417969 C 382 450.636719 411.363281 480 447.582031 480 L 662 480 L 662 265.582031 C 662 229.363281 632.636719 200 596.417969 200 Z M 346.582031 200 "/>
<path fill-rule="nonzero" fill="rgb(94.616699%, 29.870605%, 27.264404%)" fill-opacity="1" d="M 261.253906 293.671875 L 261.253906 343.582031 L 200 343.582031 L 200 414.417969 L 382 414.417969 Z M 261.253906 293.671875 "/>
<path fill-rule="nonzero" fill="rgb(43.92395%, 42.903137%, 43.157959%)" fill-opacity="1" d="M 800 388.921875 L 819.628906 388.921875 C 819.871094 398.617188 828.351562 406.613281 842.160156 406.613281 C 856.453125 406.613281 864.933594 399.585938 864.933594 390.382812 C 864.933594 381.902344 858.394531 377.539062 849.425781 375.597656 L 833.921875 371.96875 C 815.027344 366.878906 804.121094 357.675781 804.121094 339.496094 C 804.121094 320.847656 820.117188 306.0625 842.886719 306.0625 C 862.027344 306.0625 881.898438 316.238281 881.898438 339.015625 L 861.546875 339.015625 C 861.300781 330.292969 852.335938 324.476562 843.375 324.476562 C 832.46875 324.476562 825.199219 331.507812 825.199219 340.230469 C 825.199219 347.980469 832.46875 352.09375 839.734375 353.796875 L 856.453125 357.910156 C 879.960938 363.726562 886.019531 377.78125 886.019531 390.625 C 886.019531 411.703125 865.65625 425.027344 842.160156 425.027344 C 821.808594 425.027344 800.96875 412.183594 800 388.921875 "/>
<path fill-rule="nonzero" fill="rgb(43.92395%, 42.903137%, 43.157959%)" fill-opacity="1" d="M 1100.878906 365.425781 C 1100.878906 342.167969 1083.433594 325.929688 1062.601562 325.929688 C 1042.003906 325.929688 1024.804688 342.167969 1024.804688 365.425781 C 1024.804688 388.921875 1042.003906 405.164062 1062.601562 405.164062 C 1083.433594 405.164062 1100.878906 388.921875 1100.878906 365.425781 M 1003.484375 365.425781 C 1003.484375 329.566406 1030.375 306.066406 1062.601562 306.066406 C 1094.828125 306.066406 1121.96875 329.566406 1121.96875 365.425781 C 1121.96875 401.285156 1094.828125 425.027344 1062.601562 425.027344 C 1030.375 425.027344 1003.484375 401.285156 1003.484375 365.425781 "/>
<path fill-rule="nonzero" fill="rgb(43.92395%, 42.903137%, 43.157959%)" fill-opacity="1" d="M 1349.664062 422.117188 L 1321.316406 422.117188 L 1269.226562 366.875 L 1269.226562 422.117188 L 1248.148438 422.117188 L 1248.148438 247.425781 L 1269.226562 247.425781 L 1269.226562 348.953125 L 1308.480469 308.972656 L 1337.800781 308.972656 L 1289.339844 357.910156 Z M 1349.664062 422.117188 "/>
<path fill-rule="nonzero" fill="rgb(43.92395%, 42.903137%, 43.157959%)" fill-opacity="1" d="M 1545.882812 365.425781 C 1545.882812 342.167969 1528.4375 325.929688 1507.597656 325.929688 C 1487 325.929688 1469.800781 342.167969 1469.800781 365.425781 C 1469.800781 388.921875 1487 405.164062 1507.597656 405.164062 C 1528.4375 405.164062 1545.882812 388.921875 1545.882812 365.425781 M 1448.480469 365.425781 C 1448.480469 329.566406 1475.371094 306.066406 1507.597656 306.066406 C 1539.824219 306.066406 1566.960938 329.566406 1566.960938 365.425781 C 1566.960938 401.285156 1539.824219 425.027344 1507.597656 425.027344 C 1475.371094 425.027344 1448.480469 401.285156 1448.480469 365.425781 "/>
<path fill-rule="nonzero" fill="rgb(43.92395%, 42.903137%, 43.157959%)" fill-opacity="1" d="M 1778.921875 356.460938 C 1776.25 337.078125 1762.441406 325.929688 1743.789062 325.929688 C 1724.652344 325.929688 1711.082031 336.109375 1707.6875 356.460938 Z M 1799.511719 374.628906 L 1707.441406 374.628906 C 1710.59375 394.738281 1725.132812 405.164062 1744.515625 405.164062 C 1758.328125 405.164062 1770.925781 398.859375 1777.464844 387.472656 L 1795.636719 394.738281 C 1785.945312 414.367188 1765.589844 425.027344 1743.789062 425.027344 C 1711.5625 425.027344 1685.640625 401.042969 1685.640625 365.183594 C 1685.640625 329.324219 1711.5625 306.066406 1743.789062 306.066406 C 1776.007812 306.066406 1800 329.324219 1800 365.183594 C 1800 368.335938 1799.757812 371.480469 1799.511719 374.628906 "/>
</svg>
