<?xml version="1.0" encoding="UTF-8"?>
<svg xmlns="http://www.w3.org/2000/svg" xmlns:xlink="http://www.w3.org/1999/xlink" width="2000" height="2000" viewBox="0 0 2000 2000">
<path fill-rule="nonzero" fill="rgb(92.919922%, 10.430908%, 16.159058%)" fill-opacity="1" d="M 732.011719 333.332031 L 732.011719 789.152344 L 844.445312 789.152344 L 844.445312 630.707031 L 1227.757812 1014.019531 L 844.445312 1014.019531 C 844.445312 1129.007812 937.660156 1222.222656 1052.644531 1222.222656 L 1733.332031 1222.222656 L 1733.332031 541.535156 C 1733.332031 426.546875 1640.117188 333.332031 1525.132812 333.332031 Z M 732.011719 333.332031 "/>
<path fill-rule="nonzero" fill="rgb(94.616699%, 29.870605%, 27.264404%)" fill-opacity="1" d="M 461.128906 630.707031 L 461.128906 789.152344 L 266.667969 789.152344 L 266.667969 1014.019531 L 844.445312 1014.019531 Z M 461.128906 630.707031 "/>
<path fill-rule="nonzero" fill="rgb(43.92395%, 42.903137%, 43.157959%)" fill-opacity="1" d="M 200 1608.902344 L 231.402344 1608.902344 C 231.792969 1624.40625 245.359375 1637.203125 267.460938 1637.203125 C 290.328125 1637.203125 303.894531 1625.960938 303.894531 1611.234375 C 303.894531 1597.667969 293.429688 1590.683594 279.082031 1587.585938 L 254.273438 1581.773438 C 224.039062 1573.628906 206.59375 1558.902344 206.59375 1529.820312 C 206.59375 1499.980469 232.183594 1476.328125 268.617188 1476.328125 C 299.242188 1476.328125 331.035156 1492.605469 331.035156 1529.050781 L 298.472656 1529.050781 C 298.082031 1515.09375 283.734375 1505.789062 269.398438 1505.789062 C 251.953125 1505.789062 240.316406 1517.035156 240.316406 1530.992188 C 240.316406 1543.398438 251.953125 1549.976562 263.574219 1552.699219 L 290.328125 1559.28125 C 327.933594 1568.585938 337.628906 1591.078125 337.628906 1611.625 C 337.628906 1645.347656 305.054688 1666.667969 267.460938 1666.667969 C 234.894531 1666.667969 201.550781 1646.117188 200 1608.902344 "/>
<path fill-rule="nonzero" fill="rgb(43.92395%, 42.903137%, 43.157959%)" fill-opacity="1" d="M 681.40625 1571.308594 C 681.40625 1534.09375 653.496094 1508.109375 620.164062 1508.109375 C 587.210938 1508.109375 559.6875 1534.09375 559.6875 1571.308594 C 559.6875 1608.902344 587.210938 1634.882812 620.164062 1634.882812 C 653.496094 1634.882812 681.40625 1608.902344 681.40625 1571.308594 M 525.574219 1571.308594 C 525.574219 1513.933594 568.601562 1476.328125 620.164062 1476.328125 C 671.726562 1476.328125 715.148438 1513.933594 715.148438 1571.308594 C 715.148438 1628.683594 671.726562 1666.667969 620.164062 1666.667969 C 568.601562 1666.667969 525.574219 1628.683594 525.574219 1571.308594 "/>
<path fill-rule="nonzero" fill="rgb(43.92395%, 42.903137%, 43.157959%)" fill-opacity="1" d="M 1079.464844 1662.015625 L 1034.105469 1662.015625 L 950.761719 1573.628906 L 950.761719 1662.015625 L 917.039062 1662.015625 L 917.039062 1382.507812 L 950.761719 1382.507812 L 950.761719 1544.949219 L 1013.570312 1480.980469 L 1060.476562 1480.980469 L 982.945312 1559.28125 Z M 1079.464844 1662.015625 "/>
<path fill-rule="nonzero" fill="rgb(43.92395%, 42.903137%, 43.157959%)" fill-opacity="1" d="M 1393.414062 1571.308594 C 1393.414062 1534.09375 1365.503906 1508.109375 1332.160156 1508.109375 C 1299.203125 1508.109375 1271.683594 1534.09375 1271.683594 1571.308594 C 1271.683594 1608.902344 1299.203125 1634.882812 1332.160156 1634.882812 C 1365.503906 1634.882812 1393.414062 1608.902344 1393.414062 1571.308594 M 1237.566406 1571.308594 C 1237.566406 1513.933594 1280.597656 1476.328125 1332.160156 1476.328125 C 1383.71875 1476.328125 1427.136719 1513.933594 1427.136719 1571.308594 C 1427.136719 1628.683594 1383.71875 1666.667969 1332.160156 1666.667969 C 1280.597656 1666.667969 1237.566406 1628.683594 1237.566406 1571.308594 "/>
<path fill-rule="nonzero" fill="rgb(43.92395%, 42.903137%, 43.157959%)" fill-opacity="1" d="M 1766.277344 1556.960938 C 1762.003906 1525.949219 1739.902344 1508.109375 1710.0625 1508.109375 C 1679.441406 1508.109375 1657.730469 1524.398438 1652.296875 1556.960938 Z M 1799.21875 1586.035156 L 1651.90625 1586.035156 C 1656.949219 1618.207031 1680.210938 1634.886719 1711.222656 1634.886719 C 1733.324219 1634.886719 1753.480469 1624.800781 1763.945312 1606.582031 L 1793.015625 1618.207031 C 1777.507812 1649.609375 1744.945312 1666.667969 1710.0625 1666.667969 C 1658.5 1666.667969 1617.023438 1628.292969 1617.023438 1570.917969 C 1617.023438 1513.542969 1658.5 1476.328125 1710.0625 1476.328125 C 1761.613281 1476.328125 1800 1513.542969 1800 1570.917969 C 1800 1575.960938 1799.609375 1580.992188 1799.21875 1586.035156 "/>
</svg>
