<?xml version="1.0" encoding="UTF-8"?>
<svg xmlns="http://www.w3.org/2000/svg" xmlns:xlink="http://www.w3.org/1999/xlink" width="2000" height="680" viewBox="0 0 2000 680">
<path fill-rule="nonzero" fill="rgb(43.92395%, 42.903137%, 43.157959%)" fill-opacity="1" d="M 200 424.316406 L 231.402344 424.316406 C 231.792969 439.820312 245.359375 452.617188 267.460938 452.617188 C 290.328125 452.617188 303.894531 441.371094 303.894531 426.648438 C 303.894531 413.082031 293.429688 406.097656 279.082031 402.996094 L 254.273438 397.183594 C 224.039062 389.039062 206.59375 374.316406 206.59375 345.230469 C 206.59375 315.390625 232.183594 291.742188 268.617188 291.742188 C 299.242188 291.742188 331.035156 308.015625 331.035156 344.460938 L 298.472656 344.460938 C 298.082031 330.507812 283.734375 321.203125 269.398438 321.203125 C 251.953125 321.203125 240.316406 332.449219 240.316406 346.402344 C 240.316406 358.808594 251.953125 365.390625 263.574219 368.113281 L 290.328125 374.695312 C 327.933594 383.996094 337.628906 406.488281 337.628906 427.039062 C 337.628906 460.761719 305.054688 482.078125 267.460938 482.078125 C 234.894531 482.078125 201.550781 461.53125 200 424.316406 "/>
<path fill-rule="nonzero" fill="rgb(43.92395%, 42.903137%, 43.157959%)" fill-opacity="1" d="M 681.40625 386.71875 C 681.40625 349.503906 653.496094 323.523438 620.164062 323.523438 C 587.210938 323.523438 559.6875 349.503906 559.6875 386.71875 C 559.6875 424.316406 587.210938 450.296875 620.164062 450.296875 C 653.496094 450.296875 681.40625 424.316406 681.40625 386.71875 M 525.574219 386.71875 C 525.574219 329.347656 568.601562 291.742188 620.164062 291.742188 C 671.726562 291.742188 715.148438 329.347656 715.148438 386.71875 C 715.148438 444.09375 671.726562 482.078125 620.164062 482.078125 C 568.601562 482.078125 525.574219 444.09375 525.574219 386.71875 "/>
<path fill-rule="nonzero" fill="rgb(43.92395%, 42.903137%, 43.157959%)" fill-opacity="1" d="M 1079.464844 477.425781 L 1034.105469 477.425781 L 950.761719 389.039062 L 950.761719 477.425781 L 917.039062 477.425781 L 917.039062 197.921875 L 950.761719 197.921875 L 950.761719 360.359375 L 1013.570312 296.394531 L 1060.476562 296.394531 L 982.945312 374.695312 Z M 1079.464844 477.425781 "/>
<path fill-rule="nonzero" fill="rgb(43.92395%, 42.903137%, 43.157959%)" fill-opacity="1" d="M 1393.414062 386.71875 C 1393.414062 349.503906 1365.503906 323.523438 1332.160156 323.523438 C 1299.203125 323.523438 1271.683594 349.503906 1271.683594 386.71875 C 1271.683594 424.316406 1299.203125 450.296875 1332.160156 450.296875 C 1365.503906 450.296875 1393.414062 424.316406 1393.414062 386.71875 M 1237.566406 386.71875 C 1237.566406 329.347656 1280.597656 291.742188 1332.160156 291.742188 C 1383.71875 291.742188 1427.136719 329.347656 1427.136719 386.71875 C 1427.136719 444.09375 1383.71875 482.078125 1332.160156 482.078125 C 1280.597656 482.078125 1237.566406 444.09375 1237.566406 386.71875 "/>
<path fill-rule="nonzero" fill="rgb(43.92395%, 42.903137%, 43.157959%)" fill-opacity="1" d="M 1766.277344 372.375 C 1762.003906 341.359375 1739.902344 323.523438 1710.0625 323.523438 C 1679.441406 323.523438 1657.730469 339.8125 1652.296875 372.375 Z M 1799.21875 401.445312 L 1651.90625 401.445312 C 1656.949219 433.617188 1680.210938 450.296875 1711.222656 450.296875 C 1733.324219 450.296875 1753.480469 440.210938 1763.945312 421.996094 L 1793.015625 433.617188 C 1777.507812 465.023438 1744.945312 482.078125 1710.0625 482.078125 C 1658.5 482.078125 1617.023438 443.703125 1617.023438 386.332031 C 1617.023438 328.957031 1658.5 291.742188 1710.0625 291.742188 C 1761.613281 291.742188 1800 328.957031 1800 386.332031 C 1800 391.371094 1799.609375 396.402344 1799.21875 401.445312 "/>
</svg>
