<svg xmlns="http://www.w3.org/2000/svg" viewBox="0 0 1600 1100" fill="none" font-family="Noto Sans CJK JP, Noto Sans JP, Hiragino Sans, Yu Gothic, system-ui, sans-serif">
  <style>
    text { font-family: 'Noto Sans JP', 'Hiragino Sans', 'Yu Gothic', system-ui, sans-serif; }
  </style>

  <!-- 背景 -->
  <rect width="1600" height="1100" fill="#F7F6F3"/>

  <!-- タブレット筐体 -->
  <rect x="40" y="40" width="1520" height="1020" rx="36" fill="#0F0F10"/>
  <rect x="56" y="56" width="1488" height="988" rx="22" fill="#FFFFFF"/>

  <!-- オレンジヘッダー帯 -->
  <path d="M56 78 H1544 V202 H56 Z" fill="#F49E0B"/>

  <!-- ハンバーガー -->
  <rect x="92" y="116" width="22" height="2.5" rx="1" fill="#FFFFFF"/>
  <rect x="92" y="125" width="22" height="2.5" rx="1" fill="#FFFFFF"/>
  <rect x="92" y="134" width="22" height="2.5" rx="1" fill="#FFFFFF"/>

  <!-- 施設アイコン -->
  <circle cx="148" cy="126" r="13" fill="#FFFFFF" fill-opacity="0.95"/>
  <path d="M148 119 L150 124 L155.5 124 L151 127.5 L153 132.5 L148 129.5 L143 132.5 L145 127.5 L140.5 124 L146 124 Z" fill="#F49E0B"/>

  <text font-family="Noto Sans CJK JP" x="172" y="125" font-size="22" font-weight="700" fill="#FFFFFF">さくらの里 介護ホーム</text>
  <text font-family="Noto Sans CJK JP" x="172" y="145" font-size="13" fill="#FFFFFF" fill-opacity="0.85">ダッシュボード</text>

  <!-- 通知ベル -->
  <g transform="translate(1240,116)">
    <path d="M11 4 Q4 4 4 13 L4 17 L1 20 L21 20 L18 17 L18 13 Q18 4 11 4 Z" stroke="#FFFFFF" stroke-width="1.8" fill="none" stroke-linejoin="round"/>
    <path d="M9 22 Q9 24 11 24 Q13 24 13 22" stroke="#FFFFFF" stroke-width="1.8" fill="none"/>
    <circle cx="17" cy="6" r="5" fill="#ED1A29"/>
    <text font-family="Noto Sans CJK JP" x="17" y="9.5" font-size="9" font-weight="700" fill="#FFFFFF" text-anchor="middle">2</text>
  </g>
  <text font-family="Noto Sans CJK JP" x="1290" y="133" font-size="14" font-weight="600" fill="#FFFFFF">2026年6月8日 (月) 09:30</text>

  <!-- ユーザーアイコン -->
  <circle cx="1490" cy="126" r="13" stroke="#FFFFFF" stroke-width="1.8" fill="none"/>
  <circle cx="1490" cy="121" r="3.5" fill="#FFFFFF"/>
  <path d="M1483 134 Q1483 128 1490 128 Q1497 128 1497 134" fill="#FFFFFF"/>
  <text font-family="Noto Sans CJK JP" x="1505" y="130" font-size="11" fill="#FFFFFF">管理者</text>

  <!-- ホーム title -->
  <text font-family="Noto Sans CJK JP" x="92" y="190" font-size="34" font-weight="800" fill="#FFFFFF">ホーム</text>
  <rect x="208" y="166" width="120" height="30" rx="15" fill="#FFFFFF"/>
  <text font-family="Noto Sans CJK JP" x="224" y="186" font-size="13" font-weight="700" fill="#F49E0B">出席 38/42名</text>

  <!-- 日付ナビ -->
  <circle cx="103" cy="226" r="11" fill="#FFFFFF"/>
  <path d="M106 222 L100 226 L106 230" stroke="#F49E0B" stroke-width="2" fill="none" stroke-linecap="round" stroke-linejoin="round"/>

  <rect x="120" y="215" width="170" height="22" rx="11" fill="#FFFFFF"/>
  <g transform="translate(133,221)">
    <rect width="11" height="10" rx="1.5" stroke="#1A1A1A" stroke-width="1.2" fill="none"/>
    <line x1="0" y1="3.5" x2="11" y2="3.5" stroke="#1A1A1A" stroke-width="1.2"/>
    <line x1="3" y1="0" x2="3" y2="2" stroke="#1A1A1A" stroke-width="1.2"/>
    <line x1="8" y1="0" x2="8" y2="2" stroke="#1A1A1A" stroke-width="1.2"/>
  </g>
  <text font-family="Noto Sans CJK JP" x="150" y="231" font-size="12" font-weight="600" fill="#1A1A1A">2026年6月8日(月)</text>

  <circle cx="305" cy="226" r="11" fill="#FFFFFF"/>
  <path d="M302 222 L308 226 L302 230" stroke="#F49E0B" stroke-width="2" fill="none" stroke-linecap="round" stroke-linejoin="round"/>

  <rect x="324" y="215" width="60" height="22" rx="11" fill="#1A1A1A" fill-opacity="0.18"/>
  <text font-family="Noto Sans CJK JP" x="354" y="231" font-size="12" font-weight="600" fill="#FFFFFF" text-anchor="middle">今日</text>

  <!-- バイタルカード -->
  <rect x="92" y="270" width="450" height="100" rx="14" fill="#FFFFFF" stroke="#FEE2E2" stroke-width="2"/>
  <circle cx="132" cy="320" r="22" fill="#FEE2E2"/>
  <path d="M132 330 C124 322 118 316 122 311 C125 308 130 309 132 313 C134 309 139 308 142 311 C146 316 140 322 132 330 Z" fill="#ED1A29"/>
  <text font-family="Noto Sans CJK JP" x="172" y="312" font-size="20" font-weight="700" fill="#1A1A1A">バイタル</text>
  <text font-family="Noto Sans CJK JP" x="172" y="340" font-size="14" fill="#70696E">異常値なし</text>

  <!-- 入浴カード -->
  <rect x="572" y="270" width="450" height="100" rx="14" fill="#FFFFFF" stroke="#DBEAFE" stroke-width="2"/>
  <circle cx="612" cy="320" r="22" fill="#DBEAFE"/>
  <g transform="translate(600,310)">
    <path d="M2 12 L22 12 M5 12 L5 7 Q5 4 9 4 L11 4 Q14 4 14 7 L14 12 M4 16 Q7 18 9 16 Q11 18 13 16 Q15 18 17 16 Q19 18 21 16" stroke="#3B82F6" stroke-width="2" fill="none" stroke-linecap="round"/>
  </g>
  <text font-family="Noto Sans CJK JP" x="650" y="312" font-size="20" font-weight="700" fill="#1A1A1A">入浴</text>
  <text font-family="Noto Sans CJK JP" x="650" y="346" font-size="26" font-weight="800" fill="#3B82F6">12<tspan font-family="Noto Sans CJK JP" font-size="20" fill="#70696E">/28</tspan><tspan font-family="Noto Sans CJK JP" font-size="14" font-weight="600" fill="#70696E">  名完了</tspan></text>

  <!-- マシン訓練カード -->
  <rect x="1052" y="270" width="456" height="100" rx="14" fill="#FFFFFF" stroke="#D1FAE5" stroke-width="2"/>
  <circle cx="1092" cy="320" r="22" fill="#D1FAE5"/>
  <rect x="1082" y="312" width="20" height="16" rx="2" stroke="#10B981" stroke-width="2" fill="none"/>
  <path d="M1085 320 L1090 324 L1098 314" stroke="#10B981" stroke-width="2" fill="none" stroke-linecap="round" stroke-linejoin="round"/>
  <text font-family="Noto Sans CJK JP" x="1130" y="312" font-size="20" font-weight="700" fill="#1A1A1A">マシン訓練</text>
  <text font-family="Noto Sans CJK JP" x="1130" y="346" font-size="26" font-weight="800" fill="#10B981">18<tspan font-family="Noto Sans CJK JP" font-size="20" fill="#70696E">/35</tspan><tspan font-family="Noto Sans CJK JP" font-size="14" font-weight="600" fill="#70696E">  名実施済</tspan></text>

  <!-- 本日の業務（左カラム） -->
  <rect x="92" y="400" width="930" height="600" rx="14" fill="#FFFFFF" stroke="#E5E3DF" stroke-width="1"/>

  <g transform="translate(120,420)">
    <rect x="3" y="2" width="16" height="20" rx="2" stroke="#1A1A1A" stroke-width="1.6" fill="none"/>
    <rect x="6" y="0" width="10" height="4" rx="1" fill="#1A1A1A"/>
    <line x1="7" y1="9" x2="15" y2="9" stroke="#1A1A1A" stroke-width="1.4"/>
    <line x1="7" y1="13" x2="15" y2="13" stroke="#1A1A1A" stroke-width="1.4"/>
    <line x1="7" y1="17" x2="13" y2="17" stroke="#1A1A1A" stroke-width="1.4"/>
  </g>
  <text font-family="Noto Sans CJK JP" x="150" y="438" font-size="22" font-weight="700" fill="#1A1A1A">本日の業務</text>

  <rect x="290" y="420" width="50" height="22" rx="11" fill="#D1FAE5"/>
  <text font-family="Noto Sans CJK JP" x="315" y="436" font-size="12" font-weight="700" fill="#10B981" text-anchor="middle">完了 6</text>
  <rect x="350" y="420" width="50" height="22" rx="11" fill="#FEF3C7"/>
  <text font-family="Noto Sans CJK JP" x="375" y="436" font-size="12" font-weight="700" fill="#D97706" text-anchor="middle">進行 8</text>

  <rect x="860" y="420" width="62" height="22" rx="11" fill="#1A1A1A"/>
  <text font-family="Noto Sans CJK JP" x="891" y="436" font-size="12" font-weight="700" fill="#FFFFFF" text-anchor="middle">リスト</text>
  <text font-family="Noto Sans CJK JP" x="940" y="436" font-size="12" fill="#70696E">ガント</text>

  <rect x="120" y="464" width="874" height="22" rx="4" fill="#8B5CF6"/>
  <text font-family="Noto Sans CJK JP" x="132" y="480" font-size="12" font-weight="700" fill="#FFFFFF">情報確認系</text>
  <text font-family="Noto Sans CJK JP" x="132" y="510" font-size="14" fill="#70696E">08:30   朝の申し送り確認</text>
  <text font-family="Noto Sans CJK JP" x="950" y="510" font-size="11" font-weight="600" fill="#70696E" text-anchor="end">未着手</text>
  <text font-family="Noto Sans CJK JP" x="132" y="534" font-size="14" fill="#70696E">15:00   スタッフ打ち合わせ</text>
  <text font-family="Noto Sans CJK JP" x="950" y="534" font-size="11" font-weight="600" fill="#70696E" text-anchor="end">未着手</text>

  <rect x="120" y="554" width="874" height="22" rx="4" fill="#ED1A29"/>
  <text font-family="Noto Sans CJK JP" x="132" y="570" font-size="12" font-weight="700" fill="#FFFFFF">バイタル系</text>

  <circle cx="180" cy="595" r="7" fill="#10B981"/>
  <path d="M177 595 L179.5 597.5 L184 592.5" stroke="#FFFFFF" stroke-width="1.8" fill="none" stroke-linecap="round" stroke-linejoin="round"/>
  <text font-family="Noto Sans CJK JP" x="132" y="600" font-size="14" fill="#1A1A1A">09:00</text>
  <text font-family="Noto Sans CJK JP" x="195" y="600" font-size="14" fill="#1A1A1A">バイタル測定（1回目）</text>
  <text font-family="Noto Sans CJK JP" x="800" y="600" font-size="11" font-weight="600" fill="#1A1A1A" text-anchor="end">山田 彩香</text>
  <rect x="820" y="588" width="40" height="18" rx="4" fill="#D1FAE5"/>
  <text font-family="Noto Sans CJK JP" x="840" y="601" font-size="11" font-weight="700" fill="#10B981" text-anchor="middle">完了</text>

  <circle cx="180" cy="619" r="7" fill="#10B981"/>
  <path d="M177 619 L179.5 621.5 L184 616.5" stroke="#FFFFFF" stroke-width="1.8" fill="none" stroke-linecap="round" stroke-linejoin="round"/>
  <text font-family="Noto Sans CJK JP" x="132" y="624" font-size="14" fill="#1A1A1A">09:40</text>
  <text font-family="Noto Sans CJK JP" x="195" y="624" font-size="14" fill="#1A1A1A">再検バイタル</text>
  <text font-family="Noto Sans CJK JP" x="800" y="624" font-size="11" font-weight="600" fill="#1A1A1A" text-anchor="end">山田 彩香</text>
  <rect x="820" y="612" width="40" height="18" rx="4" fill="#D1FAE5"/>
  <text font-family="Noto Sans CJK JP" x="840" y="625" font-size="11" font-weight="700" fill="#10B981" text-anchor="middle">完了</text>

  <circle cx="180" cy="643" r="7" stroke="#CFCDC9" stroke-width="1.4" fill="none"/>
  <text font-family="Noto Sans CJK JP" x="132" y="648" font-size="14" fill="#70696E">13:20</text>
  <text font-family="Noto Sans CJK JP" x="195" y="648" font-size="14" fill="#70696E">バイタル測定（2回目）</text>
  <text font-family="Noto Sans CJK JP" x="950" y="648" font-size="11" font-weight="600" fill="#70696E" text-anchor="end">未着手</text>

  <rect x="120" y="668" width="874" height="22" rx="4" fill="#3B82F6"/>
  <text font-family="Noto Sans CJK JP" x="132" y="684" font-size="12" font-weight="700" fill="#FFFFFF">入浴系</text>
  <text font-family="Noto Sans CJK JP" x="132" y="714" font-size="14" fill="#70696E">16:00   入浴メンバー確認</text>
  <text font-family="Noto Sans CJK JP" x="950" y="714" font-size="11" font-weight="600" fill="#70696E" text-anchor="end">未着手</text>

  <rect x="120" y="734" width="874" height="22" rx="4" fill="#10B981"/>
  <text font-family="Noto Sans CJK JP" x="132" y="750" font-size="12" font-weight="700" fill="#FFFFFF">マシン系</text>
  <text font-family="Noto Sans CJK JP" x="132" y="780" font-size="14" fill="#70696E">10:30   マシン運動</text>
  <text font-family="Noto Sans CJK JP" x="950" y="780" font-size="11" font-weight="600" fill="#70696E" text-anchor="end">未着手</text>

  <rect x="120" y="800" width="874" height="22" rx="4" fill="#8B5CF6"/>
  <text font-family="Noto Sans CJK JP" x="132" y="816" font-size="12" font-weight="700" fill="#FFFFFF">食事系</text>
  <text font-family="Noto Sans CJK JP" x="132" y="846" font-size="14" fill="#70696E">11:30   昼食献立チェック（配膳準備）</text>
  <text font-family="Noto Sans CJK JP" x="132" y="870" font-size="14" fill="#70696E">12:00   配膳・食事介助</text>
  <text font-family="Noto Sans CJK JP" x="132" y="894" font-size="14" fill="#70696E">17:30   夕食前の声かけ</text>

  <rect x="120" y="914" width="874" height="22" rx="4" fill="#10B981"/>
  <text font-family="Noto Sans CJK JP" x="132" y="930" font-size="12" font-weight="700" fill="#FFFFFF">書類・事務系</text>
  <text font-family="Noto Sans CJK JP" x="132" y="960" font-size="14" fill="#70696E">14:00   介護記録の入力</text>
  <text font-family="Noto Sans CJK JP" x="132" y="984" font-size="14" fill="#70696E">16:00   利用票の提出（当日分）</text>

  <!-- To-Do（右上） -->
  <rect x="1052" y="400" width="456" height="240" rx="14" fill="#FFFFFF" stroke="#E5E3DF" stroke-width="1"/>
  <g transform="translate(1080,422)">
    <path d="M11 0 L14 4 L14 10 L17 13 L17 14 L11 14 L11 22 L10 22 L10 14 L4 14 L4 13 L7 10 L7 4 L10 0 Z" fill="#1A1A1A"/>
  </g>
  <text font-family="Noto Sans CJK JP" x="1110" y="440" font-size="20" font-weight="700" fill="#1A1A1A">To-Do</text>
  <text font-family="Noto Sans CJK JP" x="1175" y="440" font-size="14" font-weight="600" fill="#70696E">3件</text>
  <text font-family="Noto Sans CJK JP" x="1490" y="442" font-size="24" font-weight="400" fill="#70696E" text-anchor="end">+</text>

  <text font-family="Noto Sans CJK JP" x="1080" y="476" font-size="11" font-weight="700" fill="#70696E">未着手 (1)</text>
  <text font-family="Noto Sans CJK JP" x="1200" y="476" font-size="11" font-weight="700" fill="#D97706">作業中 (2)</text>
  <text font-family="Noto Sans CJK JP" x="1380" y="476" font-size="11" font-weight="700" fill="#70696E">完了 (0)</text>

  <rect x="1070" y="490" width="120" height="74" rx="8" fill="#F7F6F3" stroke="#E5E3DF" stroke-width="1"/>
  <text font-family="Noto Sans CJK JP" x="1082" y="510" font-size="10" font-weight="700" fill="#8B5CF6">その他</text>
  <text font-family="Noto Sans CJK JP" x="1082" y="528" font-size="11" font-weight="600" fill="#1A1A1A">消耗品の在庫確認</text>
  <text font-family="Noto Sans CJK JP" x="1082" y="556" font-size="10" fill="#70696E">0/1 未完了</text>

  <rect x="1200" y="490" width="120" height="74" rx="8" fill="#FEF3C7" stroke="#FCD34D" stroke-width="1"/>
  <text font-family="Noto Sans CJK JP" x="1212" y="510" font-size="10" font-weight="700" fill="#D97706">事務</text>
  <text font-family="Noto Sans CJK JP" x="1212" y="528" font-size="11" font-weight="600" fill="#1A1A1A">月次レポート作成</text>
  <text font-family="Noto Sans CJK JP" x="1212" y="546" font-size="10" fill="#70696E">担当: 鈴木 美咲</text>
  <text font-family="Noto Sans CJK JP" x="1212" y="560" font-size="10" fill="#70696E">締切 6/10</text>

  <rect x="1200" y="572" width="120" height="60" rx="8" fill="#FEF3C7" stroke="#FCD34D" stroke-width="1"/>
  <text font-family="Noto Sans CJK JP" x="1212" y="592" font-size="10" font-weight="700" fill="#D97706">ケア</text>
  <text font-family="Noto Sans CJK JP" x="1212" y="610" font-size="11" font-weight="600" fill="#1A1A1A">レクリエーション準備</text>
  <text font-family="Noto Sans CJK JP" x="1212" y="624" font-size="10" fill="#70696E">締切 6/9</text>

  <!-- メモボード -->
  <rect x="1052" y="654" width="456" height="180" rx="14" fill="#FFFFFF" stroke="#E5E3DF" stroke-width="1"/>
  <g transform="translate(1080,676)">
    <path d="M11 0 L14 4 L14 10 L17 13 L17 14 L11 14 L11 22 L10 22 L10 14 L4 14 L4 13 L7 10 L7 4 L10 0 Z" fill="#1A1A1A"/>
  </g>
  <text font-family="Noto Sans CJK JP" x="1110" y="694" font-size="20" font-weight="700" fill="#1A1A1A">メモボード</text>
  <text font-family="Noto Sans CJK JP" x="1235" y="694" font-size="14" font-weight="600" fill="#70696E">5</text>

  <rect x="1456" y="676" width="46" height="22" rx="6" fill="#F49E0B"/>
  <text font-family="Noto Sans CJK JP" x="1479" y="691" font-size="10" font-weight="700" fill="#FFFFFF" text-anchor="middle">+ テキスト</text>

  <rect x="1068" y="710" width="100" height="110" rx="6" fill="#FEF3C7"/>
  <text font-family="Noto Sans CJK JP" x="1076" y="726" font-size="9" fill="#1A1A1A">6/7(日) 避難訓練</text>
  <text font-family="Noto Sans CJK JP" x="1076" y="738" font-size="9" fill="#1A1A1A">を実施しました。</text>
  <text font-family="Noto Sans CJK JP" x="1076" y="750" font-size="9" fill="#1A1A1A">非常脱出経路の</text>
  <text font-family="Noto Sans CJK JP" x="1076" y="762" font-size="9" fill="#1A1A1A">確認を各フロアで</text>
  <text font-family="Noto Sans CJK JP" x="1076" y="774" font-size="9" fill="#1A1A1A">行いました。</text>
  <text font-family="Noto Sans CJK JP" x="1076" y="810" font-size="9" font-weight="600" fill="#70696E">山田 彩香</text>
  <text font-family="Noto Sans CJK JP" x="1158" y="810" font-size="9" fill="#70696E" text-anchor="end">6/7</text>

  <rect x="1176" y="710" width="100" height="110" rx="6" fill="#DBEAFE"/>
  <text font-family="Noto Sans CJK JP" x="1184" y="726" font-size="9" fill="#1A1A1A">洗濯物は午前中に</text>
  <text font-family="Noto Sans CJK JP" x="1184" y="738" font-size="9" fill="#1A1A1A">回収し、乾燥機を</text>
  <text font-family="Noto Sans CJK JP" x="1184" y="750" font-size="9" fill="#1A1A1A">使用してください。</text>
  <text font-family="Noto Sans CJK JP" x="1184" y="810" font-size="9" font-weight="600" fill="#70696E">佐々木 拓也</text>
  <text font-family="Noto Sans CJK JP" x="1266" y="810" font-size="9" fill="#70696E" text-anchor="end">6/7</text>

  <rect x="1284" y="710" width="100" height="110" rx="6" fill="#D1FAE5"/>
  <text font-family="Noto Sans CJK JP" x="1292" y="726" font-size="9" fill="#1A1A1A">6/9(火) 14:00-</text>
  <text font-family="Noto Sans CJK JP" x="1292" y="738" font-size="9" fill="#1A1A1A">カラオケレクを</text>
  <text font-family="Noto Sans CJK JP" x="1292" y="750" font-size="9" fill="#1A1A1A">予定しています。</text>
  <text font-family="Noto Sans CJK JP" x="1292" y="762" font-size="9" fill="#1A1A1A">ご参加ください。</text>
  <text font-family="Noto Sans CJK JP" x="1292" y="810" font-size="9" font-weight="600" fill="#70696E">中村 陽介</text>
  <text font-family="Noto Sans CJK JP" x="1374" y="810" font-size="9" fill="#70696E" text-anchor="end">6/6</text>

  <rect x="1392" y="710" width="100" height="110" rx="6" fill="#FCE7F3"/>
  <text font-family="Noto Sans CJK JP" x="1400" y="726" font-size="9" fill="#1A1A1A">エアコンのフィル</text>
  <text font-family="Noto Sans CJK JP" x="1400" y="738" font-size="9" fill="#1A1A1A">ター清掃を実施し</text>
  <text font-family="Noto Sans CJK JP" x="1400" y="750" font-size="9" fill="#1A1A1A">ました。次回は</text>
  <text font-family="Noto Sans CJK JP" x="1400" y="762" font-size="9" fill="#1A1A1A">6/15(月) 予定</text>
  <text font-family="Noto Sans CJK JP" x="1400" y="810" font-size="9" font-weight="600" fill="#70696E">鈴木 美咲</text>
  <text font-family="Noto Sans CJK JP" x="1482" y="810" font-size="9" fill="#70696E" text-anchor="end">6/6</text>

  <!-- 申し送り -->
  <rect x="1052" y="848" width="456" height="140" rx="14" fill="#FFFFFF" stroke="#E5E3DF" stroke-width="1"/>
  <g transform="translate(1080,870)">
    <path d="M0 8 L0 12 L4 12 L4 8 Z M4 6 L4 14 L14 18 L14 2 Z M16 6 L16 14 L18 14 Q20 12 20 10 Q20 8 18 6 Z" fill="#1A1A1A"/>
    <path d="M4 14 L7 22" stroke="#1A1A1A" stroke-width="2" fill="none"/>
  </g>
  <text font-family="Noto Sans CJK JP" x="1110" y="888" font-size="20" font-weight="700" fill="#1A1A1A">申し送り</text>
  <text font-family="Noto Sans CJK JP" x="1212" y="888" font-size="14" font-weight="600" fill="#70696E">1件</text>
  <rect x="1244" y="872" width="50" height="22" rx="11" fill="#ED1A29"/>
  <text font-family="Noto Sans CJK JP" x="1269" y="888" font-size="11" font-weight="700" fill="#FFFFFF" text-anchor="middle">緊急 1</text>
  <text font-family="Noto Sans CJK JP" x="1480" y="888" font-size="11" fill="#70696E" text-anchor="end">すべて表示 →</text>

  <rect x="1068" y="906" width="424" height="64" rx="8" fill="#FEF2F2" stroke="#ED1A29" stroke-width="1"/>
  <rect x="1068" y="906" width="4" height="64" rx="2" fill="#ED1A29"/>
  <g transform="translate(1086,920)">
    <path d="M8 0 L16 14 L0 14 Z" stroke="#ED1A29" stroke-width="1.5" fill="none"/>
    <line x1="8" y1="4" x2="8" y2="9" stroke="#ED1A29" stroke-width="1.5" stroke-linecap="round"/>
    <circle cx="8" cy="12" r="0.8" fill="#ED1A29"/>
  </g>
  <text font-family="Noto Sans CJK JP" x="1110" y="932" font-size="12" font-weight="700" fill="#ED1A29">時刻 08:15</text>
  <rect x="1188" y="918" width="36" height="18" rx="4" fill="#ED1A29"/>
  <text font-family="Noto Sans CJK JP" x="1206" y="931" font-size="10" font-weight="700" fill="#FFFFFF" text-anchor="middle">緊急</text>
  <text font-family="Noto Sans CJK JP" x="1086" y="956" font-size="13" font-weight="600" fill="#1A1A1A">高橋 一樹 様：転倒注意（見守り強化）</text>

  <!-- タブレット下の home indicator -->
  <rect x="780" y="1030" width="40" height="4" rx="2" fill="#0F0F10"/>
</svg>
